<svg xmlns="http://www.w3.org/2000/svg" version="1.1" x="0" y="0" width="100" height="100" viewBox="0 0 100 100" enable-background="new 0 0 100 100" xml:space="preserve"><path d="M62.7 52.9c-0.5-0.5-1.7-0.3-2.4 0.4 -0.6 0.6-1.7 1.7-2.8 2.8 -1.1 1.1-2.2 2.2-2.8 2.8 -0.7 0.7-0.9 1.9-0.4 2.4 2.2 2.2 6.4 5 10.4 9 10.2 10.2 22.9 24.3 26.6 28 0.5 0.5 1.7 0.3 2.4-0.4 0.5-0.5 1.6-1.6 2.8-2.8 1.2-1.2 2.3-2.3 2.8-2.8 0.7-0.7 0.9-1.9 0.4-2.4C96.1 86.2 81.9 73.5 71.8 63.3 67.8 59.3 65 55.1 62.7 52.9zM54.5 10.8c-12.5-12.5-32.7-12.5-45.1 0 -12.5 12.5-12.5 32.7 0 45.1 12.5 12.5 32.7 12.5 45.1 0C66.9 43.5 66.9 23.3 54.5 10.8zM48.5 50c-9.2 9.2-24.1 9.2-33.2 0 -9.2-9.2-9.2-24.1 0-33.2 9.2-9.2 24.1-9.2 33.2 0C57.7 25.9 57.7 40.8 48.5 50z"/></svg>