<svg xmlns="http://www.w3.org/2000/svg" version="1.1" x="0" y="0" width="100" height="100" viewBox="0 0 100 100" enable-background="new 0 0 100 100" xml:space="preserve"><style>.s0{fill:black;}</style><path d="M52.7 99.5C51.8 99.8 50.9 100 50 100s-1.9-0.2-2.7-0.5c-0.9-0.5-1.7-1-2.4-1.6L22.1 74.4c-0.6-0.6-1.1-1.4-1.5-2.3C20.2 71.2 20 70.3 20 69.3c0-1 0.2-1.9 0.5-2.8 0.4-0.9 0.9-1.6 1.5-2.3 0.8-0.7 1.5-1.3 2.4-1.6 0.8-0.4 1.7-0.5 2.7-0.5 1 0 1.9 0.2 2.7 0.5 0.9 0.4 1.7 1 2.4 1.6l10.7 10.8V37.2c0-1 0.2-1.9 0.5-2.8 0.4-0.9 0.9-1.6 1.5-2.3 0.7-0.7 1.4-1.3 2.4-1.7C48.1 30.2 49 30 50 30s1.9 0.2 2.7 0.5c0.9 0.4 1.7 1 2.4 1.7 0.7 0.7 1.2 1.5 1.6 2.3 0.4 0.9 0.6 1.8 0.6 2.8v37.7l10.6-10.8c0.7-0.7 1.4-1.2 2.4-1.6 0.9-0.4 1.8-0.5 2.7-0.5 1 0 1.9 0.2 2.7 0.5 0.9 0.4 1.7 0.9 2.4 1.6 0.7 0.7 1.2 1.4 1.6 2.3C79.8 67.3 80 68.3 80 69.3c0 1-0.2 2-0.5 2.8 -0.5 0.9-1 1.7-1.6 2.3L55 97.8C54.3 98.5 53.5 99.1 52.7 99.5zM87 31 87 31 87 31" transform="rotate(180 50 60)" fill="black"/><path d="m87 31c-1.2-4.1-4.5-7.3-8.6-8.3 0-0.4 0.1-0.9 0.1-1.3 0-6.6-5.4-12-12-12-1.4 0-2.7 0.2-3.9 0.7-3.8-5.7-10.3-9.4-17.6-9.4-11 0-20 8.4-21.1 19.1 0 0-0.1 0-0.1 0-6.5 0-11.7 5.1-11.9 11.5-4.1 1.4-7.1 5.1-7.1 9.7 0 5.7 4.6 10.2 10.3 10.2l0.2 0c-0.1-2-0.3-4.2 2.6-7.3 11.1-11.7 15.6-16.4 25.4-26.2 3.5-3.5 10.3-3.3 13.6-0.1 6.4 6 19.3 19.5 24.7 25.3 2.9 3.1 2.8 4.9 2.9 8.4l0.3 0c5.7 0 10.3-4.5 10.3-10.2C95.3 36 91.7 32 87 31z" fill="black"/></svg>